<svg xmlns="http://www.w3.org/2000/svg" width="90" height="90" viewBox="0 0 90 90">
    <defs>
        <style>
            .cls-1{fill:url(#linear-gradient)}
        </style>
        <linearGradient id="linear-gradient" x1=".5" x2=".5" y2="1" gradientUnits="objectBoundingBox">
            <stop offset="0" stop-color="#f9dcdb"/>
            <stop offset="1" stop-color="#ff9898"/>
        </linearGradient>
    </defs>
    <g id="Group_73437" data-name="Group 73437">
        <path id="Path_48252" d="M76.988 13.406A44.893 44.893 0 1 0 77 76.8a45.087 45.087 0 0 0-.012-63.394zm-7.676 18.413L53.689 53.254a3.409 3.409 0 0 1-1.815 1.274l-25.52 7.8a2.873 2.873 0 0 1-1.026.158 3.481 3.481 0 0 1-2.874-5.446L37.22 35.314a3.357 3.357 0 0 1 1.928-1.4l26.377-7.509a3.53 3.53 0 0 1 .969-.135 3.467 3.467 0 0 1 3.483 3.462 3.563 3.563 0 0 1-.665 2.087z" class="cls-1" data-name="Path 48252"/>
        <path id="Path_48253" d="M29.96 46.82l13.28-4.06 7.96-10.93-13.69 3.9z" class="cls-1" data-name="Path 48253" transform="translate(5.192 4.998)"/>
    </g>
</svg>
