<svg xmlns="http://www.w3.org/2000/svg" width="90" height="90" viewBox="0 0 90 90">
    <defs>
        <clipPath id="v48tyj5pda">
            <path fill="#283763" stroke="#707070" d="M0 0H90V90H0z" transform="translate(117 2260)"/>
        </clipPath>
    </defs>
    <g clip-path="url(#v48tyj5pda)" transform="translate(-117 -2260)">
        <path fill="#283763" d="M287.751 314.146V355.8a8.285 8.285 0 0 1-2.36 5.93 7.587 7.587 0 0 1-5.675 2.464h-73.93a7.587 7.587 0 0 1-5.675-2.464 8.264 8.264 0 0 1-2.36-5.93v-41.654a26.79 26.79 0 0 0 5.07 4.563q18.18 12.907 24.965 18.1 2.858 2.2 4.645 3.434a27.9 27.9 0 0 0 4.745 2.516 13.9 13.9 0 0 0 5.525 1.287h.1a13.917 13.917 0 0 0 5.525-1.287 28.092 28.092 0 0 0 4.745-2.516q1.785-1.234 4.645-3.434 8.542-6.449 25.01-18.1a27.811 27.811 0 0 0 5.025-4.563zm0-15.42a14.308 14.308 0 0 1-2.46 7.924 24.535 24.535 0 0 1-6.13 6.452q-18.885 13.69-23.5 17.045c-.335.243-1.045.781-2.135 1.6s-1.99 1.488-2.71 1.994-1.59 1.076-2.61 1.7a14.951 14.951 0 0 1-2.89 1.419 7.765 7.765 0 0 1-2.51.469h-.1a7.741 7.741 0 0 1-2.51-.469 14.813 14.813 0 0 1-2.89-1.419q-1.53-.942-2.61-1.7t-2.715-1.994c-1.085-.818-1.8-1.356-2.135-1.6q-4.568-3.355-13.155-9.575t-10.295-7.47a25.583 25.583 0 0 1-5.88-6.062 12.571 12.571 0 0 1-2.76-7.159 10.911 10.911 0 0 1 2.085-6.821 7.05 7.05 0 0 1 5.95-2.728h73.93a7.6 7.6 0 0 1 5.65 2.469 8.213 8.213 0 0 1 2.38 5.925z" transform="translate(-80.751 1977.667)"/>
    </g>
</svg>
