<svg xmlns="http://www.w3.org/2000/svg" width="230" height="230" viewBox="0 0 230 230">
    <defs>
        <style>
            .cls-1{fill:#fff}.cls-2{fill:url(#linear-gradient)}.cls-3{filter:url(#Ellipse_345)}
        </style>
        <filter id="Ellipse_345" width="230" height="230" x="0" y="0" filterUnits="userSpaceOnUse">
            <feOffset/>
            <feGaussianBlur result="blur" stdDeviation="10"/>
            <feFlood flood-opacity=".161"/>
            <feComposite in2="blur" operator="in"/>
            <feComposite in="SourceGraphic"/>
        </filter>
        <linearGradient id="linear-gradient" x1=".5" x2=".5" y2="1" gradientUnits="objectBoundingBox">
            <stop offset="0" stop-color="#c7d5f2"/>
            <stop offset="1" stop-color="#7f8fac"/>
        </linearGradient>
    </defs>
    <g id="Group_73472" data-name="Group 73472" transform="translate(-1070 -328)">
        <g class="cls-3" transform="translate(1070 328)">
            <circle id="Ellipse_345-2" cx="85" cy="85" r="85" class="cls-1" data-name="Ellipse 345" transform="translate(30 30)"/>
        </g>
        <g id="Group_1337" data-name="Group 1337" transform="translate(-.451 6.549)">
            <path id="Exclusion_3" d="M45 90A45.012 45.012 0 0 1 27.484 3.536a45.012 45.012 0 0 1 35.032 82.928A44.717 44.717 0 0 1 45 90zm0-81.667A36.667 36.667 0 1 0 81.666 45 36.709 36.709 0 0 0 45 8.333z" class="cls-2" data-name="Exclusion 3" transform="translate(1140.451 391.451)"/>
            <path id="Union_4" d="M12.606 33.254a4.979 4.979 0 0 1-3.176-1.5l-7.951-8.141a5.257 5.257 0 0 1 0-7.312 4.966 4.966 0 0 1 7.14 0l4.075 4.174L31.173 1.552a5.091 5.091 0 0 1 7.32 0l.6.619a5.392 5.392 0 0 1 0 7.5L17.445 31.84a5.091 5.091 0 0 1-4.839 1.414z" class="cls-2" data-name="Union 4" transform="translate(1164.817 421.538)"/>
        </g>
    </g>
</svg>
