<svg xmlns="http://www.w3.org/2000/svg" width="230" height="230" viewBox="0 0 230 230">
    <defs>
        <style>
            .cls-1{fill:#fff}.cls-2{fill:url(#linear-gradient)}.cls-3{filter:url(#Ellipse_344)}
        </style>
        <filter id="Ellipse_344" width="230" height="230" x="0" y="0" filterUnits="userSpaceOnUse">
            <feOffset/>
            <feGaussianBlur result="blur" stdDeviation="10"/>
            <feFlood flood-opacity=".2"/>
            <feComposite in2="blur" operator="in"/>
            <feComposite in="SourceGraphic"/>
        </filter>
        <linearGradient id="linear-gradient" x1=".5" x2=".5" y2="1" gradientUnits="objectBoundingBox">
            <stop offset="0" stop-color="#c7d5f2"/>
            <stop offset="1" stop-color="#7f8fac"/>
        </linearGradient>
    </defs>
    <g id="Group_73471" data-name="Group 73471" transform="translate(-605 -328)">
        <g class="cls-3" transform="translate(605 328)">
            <circle id="Ellipse_344-2" cx="85" cy="85" r="85" class="cls-1" data-name="Ellipse 344" transform="translate(30 30)"/>
        </g>
        <path id="Exclusion_2" d="M40 90H14A14 14 0 0 1 0 76V14A14 14 0 0 1 14 0h26a14 14 0 0 1 14 14v62a14 14 0 0 1-14 14zM16.236 68.737a4.945 4.945 0 1 0 0 9.89h21.528a4.945 4.945 0 1 0 0-9.89z" class="cls-2" data-name="Exclusion 2" transform="rotate(17 -957.81 2562.37)"/>
    </g>
</svg>
