<svg xmlns="http://www.w3.org/2000/svg" width="300" height="300" viewBox="0 0 300 300">
    <defs>
        <style>
            .cls-1{opacity:.9;fill:url(#linear-gradient)}.cls-2{fill:#fff;stroke:rgba(0,0,0,0);stroke-miterlimit:10}.cls-3{filter:url(#Ellipse_343)}
        </style>
        <linearGradient id="linear-gradient" x1=".5" x2=".5" y2="1" gradientUnits="objectBoundingBox">
            <stop offset="0" stop-color="#8dddfa"/>
            <stop offset="1" stop-color="#419df2"/>
        </linearGradient>
        <filter id="Ellipse_343" width="300" height="300" x="0" y="0" filterUnits="userSpaceOnUse">
            <feOffset/>
            <feGaussianBlur result="blur" stdDeviation="10"/>
            <feFlood flood-opacity=".2"/>
            <feComposite in2="blur" operator="in"/>
            <feComposite in="SourceGraphic"/>
        </filter>
    </defs>
    <g id="Group_73470" data-name="Group 73470" transform="translate(-134 -298)">
        <g class="cls-3" transform="translate(134 298)">
            <circle id="Ellipse_343-2" cx="120" cy="120" r="120" class="cls-1" data-name="Ellipse 343" transform="translate(30 30)"/>
        </g>
        <path id="Exclusion_1" d="M7243.813-2021h-109.635a12.19 12.19 0 0 1-8.61-3.512A11.834 11.834 0 0 1 7122-2033v-72a12.1 12.1 0 0 1 12.178-12h12.186v-12c0-23.158 19.127-42 42.636-42s42.638 18.841 42.638 42v12h12.177a12.108 12.108 0 0 1 12.185 12v72a11.83 11.83 0 0 1-3.568 8.486 12.207 12.207 0 0 1-8.619 3.514zm-33.048-17.454a2.315 2.315 0 0 1 .916.188 2.305 2.305 0 0 1 1.328 1.53l.373 2a1.583 1.583 0 0 0 1.527 1.237h2.4a1.585 1.585 0 0 0 1.528-1.237l.386-2a2.333 2.333 0 0 1 1.361-1.588 2.339 2.339 0 0 1 .9-.177 2.327 2.327 0 0 1 1.2.33l1.616 1.149a1.6 1.6 0 0 0 .86.25 1.586 1.586 0 0 0 1.094-.434l1.677-1.658a1.573 1.573 0 0 0 .188-2.054l-1.157-1.606a2.3 2.3 0 0 1-.095-2.018 2.321 2.321 0 0 1 1.535-1.322l2.016-.37a1.582 1.582 0 0 0 1.242-1.521v-2.388a1.576 1.576 0 0 0-1.242-1.532l-2.016-.372a2.329 2.329 0 0 1-1.594-1.355 2.316 2.316 0 0 1 .153-2.081l1.157-1.51a1.589 1.589 0 0 0-.187-2.054l-1.677-1.658a1.593 1.593 0 0 0-1.138-.473 1.575 1.575 0 0 0-.913.29l-1.616 1.149a2.414 2.414 0 0 1-1.212.326 2.41 2.41 0 0 1-.878-.165 2.478 2.478 0 0 1-1.267-1.595l-.372-2a1.592 1.592 0 0 0-1.53-1.237h-2.4a1.586 1.586 0 0 0-1.54 1.237l-.373 2a2.335 2.335 0 0 1-1.347 1.557 2.32 2.32 0 0 1-.9.183 2.341 2.341 0 0 1-1.155-.306l-1.565-1.149a1.581 1.581 0 0 0-.915-.29 1.586 1.586 0 0 0-1.136.473l-1.677 1.658a1.587 1.587 0 0 0-.187 2.054l1.154 1.606a2.293 2.293 0 0 1 .095 2.018 2.333 2.333 0 0 1-1.538 1.322l-2.01.372a1.577 1.577 0 0 0-1.245 1.521v2.386a1.581 1.581 0 0 0 1.245 1.535l2.01.37a2.34 2.34 0 0 1 1.6 1.357 2.313 2.313 0 0 1-.153 2.081l-1.154 1.508a1.568 1.568 0 0 0 .187 2.054l1.677 1.658a1.58 1.58 0 0 0 1.135.474 1.582 1.582 0 0 0 .916-.29l1.615-1.149a2.341 2.341 0 0 1 1.099-.285zm-47.479-19.209a4.1 4.1 0 0 1 1.612.329 4.058 4.058 0 0 1 2.332 2.686l.655 3.519a2.777 2.777 0 0 0 2.684 2.173h4.217a2.782 2.782 0 0 0 2.686-2.173l.678-3.519a4.076 4.076 0 0 1 2.394-2.786 4.068 4.068 0 0 1 1.571-.314 4.091 4.091 0 0 1 2.1.581l2.839 2.021a2.8 2.8 0 0 0 1.5.437 2.791 2.791 0 0 0 1.927-.764l2.947-2.912a2.758 2.758 0 0 0 .329-3.607l-2.033-2.825a4.025 4.025 0 0 1-.164-3.546 4.071 4.071 0 0 1 2.7-2.321l3.539-.652a2.774 2.774 0 0 0 2.184-2.671v-4.193a2.771 2.771 0 0 0-2.184-2.695l-3.539-.652a4.089 4.089 0 0 1-2.8-2.381 4.064 4.064 0 0 1 .267-3.658l2.033-2.652a2.756 2.756 0 0 0-.329-3.607l-2.947-2.912a2.781 2.781 0 0 0-2-.834 2.8 2.8 0 0 0-1.608.507l-2.839 2.023a4.212 4.212 0 0 1-2.122.572 4.212 4.212 0 0 1-1.545-.292 4.344 4.344 0 0 1-2.227-2.8l-.655-3.521a2.792 2.792 0 0 0-2.688-2.173h-4.212a2.78 2.78 0 0 0-2.708 2.173l-.655 3.521a4.092 4.092 0 0 1-2.366 2.735 4.061 4.061 0 0 1-1.587.321 4.13 4.13 0 0 1-2.031-.536l-2.751-2.023a2.785 2.785 0 0 0-1.606-.507 2.781 2.781 0 0 0-2 .834l-2.949 2.912a2.754 2.754 0 0 0-.325 3.607l2.028 2.825a4.016 4.016 0 0 1 .166 3.546 4.056 4.056 0 0 1-2.7 2.321l-3.537.652a2.772 2.772 0 0 0-2.184 2.672v4.191a2.77 2.77 0 0 0 2.184 2.695l3.537.652a4.1 4.1 0 0 1 2.8 2.386 4.053 4.053 0 0 1-.27 3.656l-2.028 2.65a2.757 2.757 0 0 0 .325 3.607l2.949 2.912a2.781 2.781 0 0 0 2 .833 2.782 2.782 0 0 0 1.606-.507l2.839-2.021a4.108 4.108 0 0 1 1.962-.496zM7189-2159a30.265 30.265 0 0 0-30.457 30v12h60.911v-12a30.264 30.264 0 0 0-30.454-30zm27.117 115.608a5.585 5.585 0 0 1-5.592-5.565 5.585 5.585 0 0 1 5.592-5.564 5.585 5.585 0 0 1 5.592 5.564 5.585 5.585 0 0 1-5.593 5.564zm-43.426-22.948a9.813 9.813 0 0 1-9.827-9.776 9.814 9.814 0 0 1 9.827-9.778 9.814 9.814 0 0 1 9.827 9.778 9.813 9.813 0 0 1-9.828 9.775z" class="cls-2" data-name="Exclusion 1" transform="translate(-6905 2534.001)"/>
    </g>
</svg>
